<svg width="18" height="18" viewBox="0 0 18 18" fill="none" xmlns="http://www.w3.org/2000/svg">
<path d="M1.5 18C1.08333 18 0.729167 17.8542 0.4375 17.5625C0.145833 17.2708 0 16.9167 0 16.5V1.5C0 1.08333 0.145833 0.729167 0.4375 0.4375C0.729167 0.145833 1.08333 0 1.5 0H16.5C16.9167 0 17.2708 0.145833 17.5625 0.4375C17.8542 0.729167 18 1.08333 18 1.5V16.5C18 16.9167 17.8542 17.2708 17.5625 17.5625C17.2708 17.8542 16.9167 18 16.5 18H1.5ZM1.5 16.5H16.5V1.5H1.5V16.5ZM9 14.5C10.5167 14.5 11.8125 13.9625 12.8875 12.8875C13.9625 11.8125 14.5 10.5167 14.5 9C14.5 7.48333 13.9625 6.1875 12.8875 5.1125C11.8125 4.0375 10.5167 3.5 9 3.5C7.48333 3.5 6.1875 4.0375 5.1125 5.1125C4.0375 6.1875 3.5 7.48333 3.5 9C3.5 10.5167 4.0375 11.8125 5.1125 12.8875C6.1875 13.9625 7.48333 14.5 9 14.5ZM5.05 8.5C5.08333 8.21667 5.14167 7.95417 5.225 7.7125C5.30833 7.47083 5.41667 7.23333 5.55 7H12.45C12.5833 7.23333 12.6917 7.47083 12.775 7.7125C12.8583 7.95417 12.9167 8.21667 12.95 8.5H5.05ZM5.55 11C5.41667 10.7667 5.30833 10.5292 5.225 10.2875C5.14167 10.0458 5.08333 9.78333 5.05 9.5H12.95C12.9167 9.78333 12.8583 10.0458 12.775 10.2875C12.6917 10.5292 12.5833 10.7667 12.45 11H5.55ZM9 13C8.5 13 8.025 12.9083 7.575 12.725C7.125 12.5417 6.725 12.3 6.375 12H11.625C11.275 12.3 10.875 12.5417 10.425 12.725C9.975 12.9083 9.5 13 9 13ZM6.375 6C6.725 5.7 7.125 5.45833 7.575 5.275C8.025 5.09167 8.5 5 9 5C9.5 5 9.975 5.09167 10.425 5.275C10.875 5.45833 11.275 5.7 11.625 6H6.375ZM1.5 16.5V1.5V16.5Z" fill="#757575"/>
</svg>
