<svg width="20" height="19" viewBox="0 0 20 19" fill="none" xmlns="http://www.w3.org/2000/svg">
<path d="M17.2 19L10.925 12.725L12.35 11.3L18.625 17.575L17.2 19ZM2.675 19L1.25 17.575L8.5 10.325L5.825 7.65001L5.25 8.22501L4.15 7.12501V9.25001L3.55 9.85001L0.5 6.80001L1.1 6.20001H3.25L2.05 5.00001L5.325 1.72501C5.60833 1.44167 5.91667 1.25001 6.25 1.15001C6.58333 1.05001 6.95 1.00001 7.35 1.00001C7.75 1.00001 8.11667 1.07084 8.45 1.21251C8.78333 1.35417 9.09167 1.56667 9.375 1.85001L6.7 4.52501L7.9 5.72501L7.3 6.32501L9.9 8.92501L12.95 5.87501C12.8167 5.65834 12.7125 5.40834 12.6375 5.12501C12.5625 4.84167 12.525 4.54167 12.525 4.22501C12.525 3.34167 12.8458 2.57917 13.4875 1.93751C14.1292 1.29584 14.8917 0.975006 15.775 0.975006C16.025 0.975006 16.2375 1.00001 16.4125 1.05001C16.5875 1.10001 16.7333 1.16667 16.85 1.25001L14.725 3.37501L16.6 5.25001L18.725 3.12501C18.8083 3.25834 18.8792 3.42084 18.9375 3.61251C18.9958 3.80417 19.025 4.02501 19.025 4.27501C19.025 5.15834 18.7042 5.92084 18.0625 6.56251C17.4208 7.20417 16.6583 7.52501 15.775 7.52501C15.475 7.52501 15.2167 7.50417 15 7.46251C14.7833 7.42084 14.5833 7.35834 14.4 7.27501L2.675 19Z" fill="#9E9E9E"/>
</svg>
