<svg width="18" height="22" viewBox="0 0 18 22" fill="none" xmlns="http://www.w3.org/2000/svg">
<path d="M3.75 6.13126C2.30625 8.30626 1.125 10.8 1.125 13.125C1.125 15.2136 1.95468 17.2166 3.43153 18.6935C4.90838 20.1703 6.91142 21 9 21C11.0886 21 13.0916 20.1703 14.5685 18.6935C16.0453 17.2166 16.875 15.2136 16.875 13.125C16.875 8.25001 13.5 4.50001 10.7625 1.77188L7.5 8.62501L3.75 6.13126Z"  stroke="#757575" stroke-width="2" stroke-linecap="round" stroke-linejoin="round"/>
<path d="M13.8187 13.875C13.6572 14.896 13.1765 15.8396 12.4455 16.5705C11.7146 17.3015 10.771 17.7822 9.75 17.9437" fill="#F7F5FF"/>
<path d="M13.8187 13.875C13.6572 14.896 13.1765 15.8396 12.4455 16.5705C11.7146 17.3015 10.771 17.7822 9.75 17.9437" stroke="#757575" stroke-width="2" stroke-linecap="round" stroke-linejoin="round"/>
</svg>
