<svg width="24" height="24" viewBox="0 0 24 24" fill="none" xmlns="http://www.w3.org/2000/svg">
<path d="M12.0254 23.275L8.65039 20H4.00039V15.35L0.650391 12L4.00039 8.64999V3.99999H8.65039L12.0254 0.649994L15.3504 3.99999H20.0004V8.64999L23.3504 12L20.0004 15.35V20H15.3504L12.0254 23.275ZM12.0254 18.5C13.8254 18.5 15.3546 17.8667 16.6129 16.6C17.8712 15.3333 18.5004 13.7917 18.5004 11.975C18.5004 10.175 17.8712 8.64583 16.6129 7.38749C15.3546 6.12916 13.8254 5.49999 12.0254 5.49999V18.5ZM12.0254 21.175L14.7254 18.5H18.5004V14.725L21.2254 12L18.5004 9.27499V5.49999H14.7254L12.0254 2.77499L9.27539 5.49999H5.50039V9.27499L2.77539 12L5.50039 14.725V18.5H9.25039L12.0254 21.175Z" fill="#757575"/>
</svg>
