<svg width="22" height="21" viewBox="0 0 22 21" fill="none" xmlns="http://www.w3.org/2000/svg">
<path d="M4.45996 18.46C4.45996 19.0123 4.90768 19.46 5.45996 19.46H16.46C17.0122 19.46 17.46 19.0123 17.46 18.46V17.96C17.46 17.4077 17.0122 16.96 16.46 16.96H5.45996C4.90768 16.96 4.45996 17.4077 4.45996 17.96V18.46ZM4.45996 14.46C4.45996 15.0123 4.90768 15.46 5.45996 15.46H16.46C17.0122 15.46 17.46 15.0123 17.46 14.46V13.96C17.46 13.4077 17.0122 12.96 16.46 12.96H5.45996C4.90768 12.96 4.45996 13.4077 4.45996 13.96V14.46ZM4.45996 10.46C4.45996 11.0123 4.90768 11.46 5.45996 11.46H16.46C17.0122 11.46 17.46 11.0123 17.46 10.46V10.2781C17.46 9.96723 17.3154 9.67404 17.0688 9.48478L16.6543 9.16668C16.4796 9.03265 16.2656 8.95999 16.0455 8.95999H5.89329C5.67692 8.95999 5.46639 9.03017 5.29329 9.15999L4.85996 9.48499C4.60816 9.67385 4.45996 9.97023 4.45996 10.285V10.46ZM9.87531 5.66629C9.11674 6.24768 9.52788 7.45999 10.4836 7.45999H11.4442C12.4017 7.45999 12.8117 6.24396 12.0497 5.66416L11.5677 5.29739C11.2089 5.02438 10.7117 5.02525 10.3539 5.29952L9.87531 5.66629ZM3.95996 20.96C3.40768 20.96 2.95996 20.5123 2.95996 19.96V12.6962C2.95996 11.9743 2.13323 11.5649 1.55906 12.0023L1.46038 12.0775C1.12952 12.3296 0.656634 12.2639 0.407061 11.9311C0.159751 11.6014 0.225283 11.1338 0.553711 10.8847L2.5642 9.36011C2.81351 9.17105 2.95996 8.8762 2.95996 8.56331V6.70999C2.95996 6.29578 3.29575 5.95999 3.70996 5.95999H3.81394C4.17073 5.95999 4.45996 6.24922 4.45996 6.60601C4.45996 7.14054 5.07211 7.44382 5.49737 7.11996L10.3533 3.42201C10.7116 3.14914 11.2081 3.14947 11.566 3.42282L21.3706 10.9099C21.696 11.1584 21.758 11.6237 21.5091 11.9487C21.2608 12.2727 20.7972 12.3348 20.4725 12.0874L20.3656 12.0059C19.7895 11.567 18.96 11.9778 18.96 12.7021V19.96C18.96 20.5123 18.5122 20.96 17.96 20.96H3.95996ZM3.70996 4.95999C3.29575 4.95999 2.94673 4.61813 3.05399 4.21805C3.17558 3.76457 3.41507 3.36189 3.77246 3.00999C4.31413 2.47666 4.95996 2.20999 5.70996 2.20999C6.05996 2.20999 6.35579 2.08499 6.59746 1.83499C6.65057 1.78005 6.69785 1.72309 6.73929 1.66412C6.97745 1.32522 7.29575 0.959991 7.70996 0.959991C8.12417 0.959991 8.47292 1.30197 8.36404 1.70162C8.24331 2.14476 8.00862 2.54338 7.65996 2.89749C7.12663 3.43916 6.47663 3.70999 5.70996 3.70999C5.37663 3.70999 5.08496 3.83083 4.83496 4.07249C4.77522 4.13024 4.72262 4.19108 4.67715 4.25502C4.43711 4.59259 4.12417 4.95999 3.70996 4.95999Z" fill="#757575"/>
</svg>
