<svg width="20" height="20" viewBox="0 0 20 20" fill="none" xmlns="http://www.w3.org/2000/svg">
<path d="M18 6.975C17.5333 5.84167 16.8708 4.84583 16.0125 3.9875C15.1542 3.12917 14.1583 2.46667 13.025 2L11.5 5.75C12.1333 5.96667 12.6833 6.3125 13.15 6.7875C13.6167 7.2625 13.9833 7.84167 14.25 8.525L18 6.975ZM7.025 2C5.775 2.51667 4.71667 3.2125 3.85 4.0875C2.98333 4.9625 2.36667 5.95 2 7.05L5.725 8.55C5.99167 7.86667 6.36667 7.28333 6.85 6.8C7.33333 6.31667 7.89167 5.96667 8.525 5.75L7.025 2ZM2 12.975C2.51667 14.1583 3.2 15.1833 4.05 16.05C4.9 16.9167 5.875 17.5667 6.975 18L8.55 14.25C7.91667 14.0333 7.35417 13.6875 6.8625 13.2125C6.37083 12.7375 6 12.1583 5.75 11.475L2 12.975ZM13.025 18C14.175 17.5333 15.175 16.8708 16.025 16.0125C16.875 15.1542 17.5333 14.1583 18 13.025L14.25 11.475C14 12.175 13.6292 12.7625 13.1375 13.2375C12.6458 13.7125 12.0833 14.05 11.45 14.25L13.025 18ZM10 20C8.61667 20 7.31667 19.7375 6.1 19.2125C4.88333 18.6875 3.825 17.975 2.925 17.075C2.025 16.175 1.3125 15.1167 0.7875 13.9C0.2625 12.6833 0 11.3833 0 10C0 8.61667 0.2625 7.31667 0.7875 6.1C1.3125 4.88333 2.025 3.825 2.925 2.925C3.825 2.025 4.88333 1.3125 6.1 0.7875C7.31667 0.2625 8.61667 0 10 0C11.3833 0 12.6833 0.2625 13.9 0.7875C15.1167 1.3125 16.175 2.025 17.075 2.925C17.975 3.825 18.6875 4.88333 19.2125 6.1C19.7375 7.31667 20 8.61667 20 10C20 11.3833 19.7375 12.6833 19.2125 13.9C18.6875 15.1167 17.975 16.175 17.075 17.075C16.175 17.975 15.1167 18.6875 13.9 19.2125C12.6833 19.7375 11.3833 20 10 20ZM10 13C10.8333 13 11.5417 12.7083 12.125 12.125C12.7083 11.5417 13 10.8333 13 10C13 9.16667 12.7083 8.45833 12.125 7.875C11.5417 7.29167 10.8333 7 10 7C9.16667 7 8.45833 7.29167 7.875 7.875C7.29167 8.45833 7 9.16667 7 10C7 10.8333 7.29167 11.5417 7.875 12.125C8.45833 12.7083 9.16667 13 10 13Z" fill="#9E9E9E"/>
</svg>
